<svg xmlns="http://www.w3.org/2000/svg" width="1281" height="557" viewBox="0 0 1281 557" fill="none">
<rect width="1281" height="557" fill="url(#paint0_linear_3_11482)"/>
<g opacity="0.5">
<path d="M201.563 15H21.9928C20.1413 15.0084 18.368 15.7481 17.0588 17.0583C15.7495 18.3685 15.0103 20.143 15.002 21.9959C15.002 23.8513 15.7385 25.6307 17.0495 26.9427C18.3606 28.2547 20.1387 28.9917 21.9928 28.9917H201.563C203.417 28.9917 205.196 28.2547 206.507 26.9427C207.818 25.6307 208.554 23.8513 208.554 21.9959C208.546 20.143 207.807 18.3685 206.497 17.0583C205.188 15.7481 203.415 15.0084 201.563 15Z" fill="#C7D0E6"/>
<path d="M128.031 44.7644H19.1642C18.0602 44.7644 17.0014 45.2033 16.2207 45.9845C15.44 46.7657 15.0015 47.8253 15.0015 48.9301C14.993 49.4825 15.0945 50.031 15.2999 50.5438C15.5053 51.0566 15.8106 51.5233 16.198 51.9169C16.5854 52.3105 17.0471 52.6231 17.5564 52.8364C18.0656 53.0497 18.6122 53.1595 19.1642 53.1594H128.031C128.579 53.1637 129.122 53.0588 129.629 52.851C130.136 52.6431 130.597 52.3364 130.984 51.9488C131.372 51.5611 131.678 51.1002 131.886 50.5929C132.094 50.0855 132.198 49.5419 132.194 48.9937C132.203 48.4413 132.101 47.8928 131.896 47.38C131.69 46.8673 131.385 46.4005 130.998 46.0069C130.61 45.6133 130.148 45.3008 129.639 45.0875C129.13 44.8742 128.583 44.7643 128.031 44.7644Z" fill="#71ABFF"/>
<path d="M128.032 105.247H19.1647C18.0607 105.247 17.0019 105.685 16.2212 106.467C15.4405 107.248 15.002 108.307 15.002 109.412C15.002 110.517 15.4405 111.577 16.2212 112.358C17.0019 113.139 18.0607 113.578 19.1647 113.578H128.032C129.136 113.578 130.195 113.139 130.975 112.358C131.756 111.577 132.195 110.517 132.195 109.412C132.195 108.307 131.756 107.248 130.975 106.467C130.195 105.685 129.136 105.247 128.032 105.247Z" fill="#004CFF"/>
<path d="M72.0095 64.925H19.1647C18.0662 64.925 17.0121 65.3595 16.2324 66.1339C15.4526 66.9083 15.0103 67.9597 15.002 69.059C15.002 70.1638 15.4405 71.2233 16.2212 72.0046C17.0019 72.7858 18.0607 73.2247 19.1647 73.2247H72.0095C73.1135 73.2247 74.1723 72.7858 74.953 72.0046C75.7336 71.2233 76.1722 70.1638 76.1722 69.059C76.1638 67.9597 75.7216 66.9083 74.9418 66.1339C74.162 65.3595 73.108 64.925 72.0095 64.925Z" fill="#85E8FF"/>
<path d="M278.304 84.9587H225.46C224.356 84.9587 223.297 85.3976 222.516 86.1788C221.735 86.9601 221.297 88.0196 221.297 89.1245C221.297 90.2293 221.735 91.2888 222.516 92.0701C223.297 92.8513 224.356 93.2902 225.46 93.2902H278.304C279.408 93.2902 280.467 92.8513 281.248 92.0701C282.029 91.2888 282.467 90.2293 282.467 89.1245C282.467 88.0196 282.029 86.9601 281.248 86.1788C280.467 85.3976 279.408 84.9587 278.304 84.9587Z" fill="#004CFF"/>
<path d="M195.716 105.247H142.872C141.768 105.247 140.709 105.685 139.928 106.467C139.148 107.248 138.709 108.307 138.709 109.412C138.709 110.517 139.148 111.577 139.928 112.358C140.709 113.139 141.768 113.578 142.872 113.578H195.716C196.263 113.578 196.804 113.47 197.31 113.261C197.815 113.052 198.273 112.745 198.66 112.358C199.047 111.971 199.353 111.512 199.562 111.006C199.772 110.501 199.879 109.959 199.879 109.412C199.879 108.865 199.772 108.324 199.562 107.818C199.353 107.313 199.047 106.854 198.66 106.467C198.273 106.08 197.815 105.773 197.31 105.564C196.804 105.354 196.263 105.247 195.716 105.247Z" fill="#004CFF"/>
<path d="M182.783 125.407H129.938C128.85 125.407 127.806 125.833 127.028 126.594C126.25 127.354 125.8 128.39 125.775 129.478C125.775 130.583 126.214 131.642 126.995 132.423C127.775 133.205 128.834 133.644 129.938 133.644H182.783C183.887 133.644 184.946 133.205 185.726 132.423C186.507 131.642 186.946 130.583 186.946 129.478C186.921 128.39 186.471 127.354 185.693 126.594C184.915 125.833 183.871 125.407 182.783 125.407Z" fill="#004CFF"/>
<path d="M337.059 44.7644H147.225C146.121 44.7644 145.062 45.2033 144.281 45.9845C143.501 46.7657 143.062 47.8253 143.062 48.9301C143.054 49.4825 143.155 50.031 143.36 50.5438C143.566 51.0566 143.871 51.5233 144.259 51.9169C144.646 52.3105 145.108 52.6231 145.617 52.8364C146.126 53.0497 146.673 53.1595 147.225 53.1594H337.059C338.163 53.1594 339.222 52.7206 340.003 51.9393C340.783 51.1581 341.222 50.0985 341.222 48.9937C341.23 48.4413 341.129 47.8928 340.923 47.38C340.718 46.8673 340.413 46.4005 340.025 46.0069C339.638 45.6133 339.176 45.3008 338.667 45.0875C338.158 44.8742 337.611 44.7643 337.059 44.7644Z" fill="#004CFF"/>
<path d="M208.999 84.9587H19.1647C18.6072 84.9585 18.0553 85.0703 17.5418 85.2875C17.0282 85.5048 16.5636 85.8231 16.1753 86.2235C15.7871 86.6239 15.4831 87.0982 15.2816 87.6184C15.08 88.1386 14.9849 88.694 15.0019 89.2517C15.0019 90.3565 15.4405 91.416 16.2212 92.1973C17.0019 92.9785 18.0607 93.4174 19.1647 93.4174H208.999C210.103 93.4174 211.162 92.9785 211.943 92.1973C212.723 91.416 213.162 90.3565 213.162 89.2517C213.179 88.694 213.084 88.1386 212.882 87.6184C212.681 87.0982 212.377 86.6239 211.988 86.2235C211.6 85.8231 211.135 85.5048 210.622 85.2875C210.108 85.0703 209.557 84.9585 208.999 84.9587Z" fill="#004CFF"/>
<path d="M278.304 64.925H88.4694C87.3709 64.925 86.3168 65.3595 85.5371 66.1339C84.7573 66.9083 84.315 67.9597 84.3066 69.059C84.3066 70.1638 84.7452 71.2233 85.5259 72.0046C86.3066 72.7858 87.3654 73.2247 88.4694 73.2247H278.304C279.408 73.2247 280.467 72.7858 281.247 72.0046C282.028 71.2233 282.466 70.1638 282.466 69.059C282.458 67.9597 282.016 66.9083 281.236 66.1339C280.456 65.3595 279.402 64.925 278.304 64.925Z" fill="#71ABFF"/>
<path d="M373.38 44.7644H356.602C355.498 44.7644 354.439 45.2033 353.659 45.9845C352.878 46.7657 352.44 47.8253 352.44 48.9301C352.427 49.4837 352.525 50.0341 352.729 50.5488C352.933 51.0636 353.238 51.5321 353.626 51.9265C354.015 52.321 354.478 52.6334 354.989 52.8452C355.501 53.057 356.049 53.1638 356.602 53.1594H373.38C374.484 53.1594 375.543 52.7206 376.324 51.9393C377.105 51.1581 377.543 50.0985 377.543 48.9937C377.552 48.4413 377.45 47.8928 377.245 47.38C377.039 46.8673 376.734 46.4005 376.347 46.0069C375.959 45.6133 375.498 45.3008 374.988 45.0875C374.479 44.8742 373.932 44.7643 373.38 44.7644Z" fill="#004CFF"/>
<path d="M311.956 84.9587H295.177C294.073 84.9587 293.015 85.3976 292.234 86.1788C291.453 86.9601 291.015 88.0196 291.015 89.1245C291.015 90.2293 291.453 91.2888 292.234 92.0701C293.015 92.8513 294.073 93.2902 295.177 93.2902H311.956C312.503 93.2944 313.047 93.1896 313.554 92.9817C314.061 92.7739 314.521 92.4672 314.908 92.0795C315.296 91.6918 315.602 91.2309 315.81 90.7236C316.018 90.2163 316.123 89.6727 316.118 89.1245C316.118 88.5774 316.011 88.0357 315.801 87.5303C315.592 87.0249 315.286 86.5657 314.899 86.1788C314.513 85.792 314.054 85.4852 313.549 85.2758C313.044 85.0665 312.502 84.9587 311.956 84.9587Z" fill="#004CFF"/>
<path d="M208.999 141.625H19.1647C18.0607 141.625 17.0019 142.064 16.2212 142.845C15.4405 143.627 15.002 144.686 15.002 145.791C15.002 146.896 15.4405 147.955 16.2212 148.737C17.0019 149.518 18.0607 149.957 19.1647 149.957H208.999C210.103 149.957 211.162 149.518 211.943 148.737C212.723 147.955 213.162 146.896 213.162 145.791C213.162 144.686 212.723 143.627 211.943 142.845C211.162 142.064 210.103 141.625 208.999 141.625Z" fill="#004CFF"/>
<path d="M242.046 141.625H225.268C224.722 141.625 224.18 141.733 223.675 141.942C223.17 142.152 222.711 142.459 222.325 142.845C221.938 143.232 221.632 143.691 221.422 144.197C221.213 144.702 221.105 145.244 221.105 145.791C221.105 146.338 221.213 146.88 221.422 147.385C221.632 147.891 221.938 148.35 222.325 148.737C222.711 149.123 223.17 149.43 223.675 149.64C224.18 149.849 224.722 149.957 225.268 149.957H242.046C243.15 149.957 244.209 149.518 244.99 148.737C245.771 147.955 246.209 146.896 246.209 145.791C246.209 144.686 245.771 143.627 244.99 142.845C244.209 142.064 243.15 141.625 242.046 141.625Z" fill="#004CFF"/>
<path d="M229.495 105.247H212.716C211.612 105.247 210.554 105.685 209.773 106.467C208.992 107.248 208.554 108.307 208.554 109.412C208.554 110.517 208.992 111.577 209.773 112.358C210.554 113.139 211.612 113.578 212.716 113.578H229.495C230.599 113.578 231.657 113.139 232.438 112.358C233.219 111.577 233.657 110.517 233.657 109.412C233.657 108.307 233.219 107.248 232.438 106.467C231.657 105.685 230.599 105.247 229.495 105.247Z" fill="#004CFF"/>
<path d="M72.0095 125.407H19.1647C18.077 125.407 17.0324 125.833 16.2544 126.594C15.4764 127.354 15.0269 128.39 15.002 129.478C15.002 130.583 15.4405 131.642 16.2212 132.423C17.0019 133.205 18.0607 133.644 19.1647 133.644H72.0095C73.1135 133.644 74.1723 133.205 74.953 132.423C75.7336 131.642 76.1722 130.583 76.1722 129.478C76.1473 128.39 75.6978 127.354 74.9198 126.594C74.1418 125.833 73.0972 125.407 72.0095 125.407Z" fill="#FFA64D"/>
<path d="M105.787 125.407H89.0094C87.9327 125.424 86.9042 125.857 86.1398 126.616C85.3754 127.375 84.9347 128.401 84.9102 129.478C84.9102 130.583 85.3487 131.642 86.1294 132.423C86.9101 133.205 87.9689 133.644 89.0729 133.644H105.851C106.944 133.627 107.987 133.181 108.754 132.401C109.521 131.622 109.95 130.572 109.95 129.478C109.925 128.39 109.476 127.354 108.698 126.594C107.92 125.833 106.875 125.407 105.787 125.407Z" fill="#FFA64D"/>
<path d="M321.584 15H240.14C238.286 15 236.508 15.7371 235.197 17.049C233.886 18.361 233.149 20.1404 233.149 21.9959C233.145 22.9157 233.323 23.8274 233.673 24.678C234.023 25.5287 234.538 26.3016 235.188 26.9521C235.838 27.6025 236.61 28.1177 237.46 28.4678C238.31 28.8179 239.221 28.9959 240.14 28.9917H321.584C322.502 28.9917 323.411 28.8108 324.259 28.4592C325.108 28.1076 325.878 27.5923 326.527 26.9427C327.177 26.2931 327.692 25.5218 328.043 24.6731C328.394 23.8243 328.575 22.9146 328.575 21.9959C328.567 20.143 327.828 18.3685 326.518 17.0583C325.209 15.7481 323.436 15.0084 321.584 15Z" fill="#C7D0E6"/>
<path d="M201.563 207.768H21.9928C20.1387 207.768 18.3606 208.505 17.0495 209.817C15.7385 211.129 15.002 212.908 15.002 214.764C15.0269 216.605 15.7735 218.364 17.0809 219.66C18.3884 220.957 20.1522 221.688 21.9928 221.696H201.563C203.415 221.688 205.188 220.948 206.497 219.638C207.807 218.327 208.546 216.553 208.554 214.7C208.537 212.856 207.793 211.093 206.484 209.794C205.175 208.496 203.406 207.768 201.563 207.768Z" fill="#C7D0E6"/>
<path d="M128.032 237.596H19.1647C18.0716 237.596 17.0223 238.026 16.2434 238.793C15.4646 239.561 15.0186 240.604 15.002 241.698C15.002 242.803 15.4405 243.862 16.2212 244.643C17.0019 245.425 18.0607 245.864 19.1647 245.864H128.032C129.136 245.864 130.195 245.425 130.975 244.643C131.756 243.862 132.195 242.803 132.195 241.698C132.178 240.604 131.732 239.561 130.953 238.793C130.174 238.026 129.125 237.596 128.032 237.596Z" fill="#004CFF"/>
<path d="M128.032 298.015H19.1647C18.0607 298.015 17.0019 298.453 16.2212 299.235C15.4405 300.016 15.002 301.075 15.002 302.18C15.002 302.727 15.1096 303.269 15.3188 303.774C15.528 304.28 15.8346 304.739 16.2212 305.126C16.6077 305.513 17.0666 305.82 17.5717 306.029C18.0767 306.238 18.618 306.346 19.1647 306.346H128.032C128.579 306.346 129.12 306.238 129.625 306.029C130.13 305.82 130.589 305.513 130.975 305.126C131.362 304.739 131.669 304.28 131.878 303.774C132.087 303.269 132.195 302.727 132.195 302.18C132.199 301.632 132.094 301.088 131.886 300.581C131.679 300.074 131.372 299.613 130.985 299.225C130.597 298.838 130.137 298.531 129.63 298.323C129.123 298.115 128.58 298.01 128.032 298.015Z" fill="#71ABFF"/>
<path d="M72.0095 257.693H19.1647C18.0607 257.693 17.0019 258.132 16.2212 258.913C15.4405 259.694 15.002 260.754 15.002 261.859C15.002 262.406 15.1096 262.947 15.3188 263.453C15.528 263.958 15.8346 264.417 16.2212 264.804C16.6077 265.191 17.0666 265.498 17.5717 265.707C18.0767 265.917 18.618 266.024 19.1647 266.024H72.0095C72.5561 266.024 73.0974 265.917 73.6025 265.707C74.1075 265.498 74.5664 265.191 74.953 264.804C75.3395 264.417 75.6461 263.958 75.8553 263.453C76.0645 262.947 76.1722 262.406 76.1722 261.859C76.1722 260.754 75.7336 259.694 74.953 258.913C74.1723 258.132 73.1135 257.693 72.0095 257.693Z" fill="#004CFF"/>
<path d="M278.304 277.854H225.459C224.904 277.854 224.355 277.964 223.843 278.18C223.332 278.395 222.869 278.71 222.481 279.107C222.093 279.504 221.789 279.975 221.585 280.491C221.382 281.008 221.283 281.56 221.296 282.115C221.296 283.22 221.735 284.279 222.515 285.06C223.296 285.842 224.355 286.281 225.459 286.281H278.304C279.408 286.281 280.466 285.842 281.247 285.06C282.028 284.279 282.466 283.22 282.466 282.115C282.479 281.56 282.381 281.008 282.177 280.491C281.974 279.975 281.669 279.504 281.281 279.107C280.893 278.71 280.43 278.395 279.919 278.18C279.407 277.964 278.858 277.854 278.304 277.854Z" fill="#004CFF"/>
<path d="M195.716 298.014H142.872C141.768 298.014 140.709 298.453 139.928 299.235C139.148 300.016 138.709 301.075 138.709 302.18C138.709 302.727 138.817 303.269 139.026 303.774C139.235 304.28 139.542 304.739 139.928 305.126C140.315 305.513 140.774 305.819 141.279 306.029C141.784 306.238 142.325 306.346 142.872 306.346H195.716C196.263 306.346 196.804 306.238 197.31 306.029C197.815 305.819 198.273 305.513 198.66 305.126C199.047 304.739 199.353 304.28 199.562 303.774C199.772 303.269 199.879 302.727 199.879 302.18C199.879 301.633 199.772 301.091 199.562 300.586C199.353 300.081 199.047 299.621 198.66 299.235C198.273 298.848 197.815 298.541 197.31 298.331C196.804 298.122 196.263 298.014 195.716 298.014Z" fill="#71ABFF"/>
<path d="M182.783 318.175H129.938C128.834 318.175 127.775 318.614 126.995 319.395C126.214 320.177 125.775 321.236 125.775 322.341C125.758 322.899 125.853 323.454 126.055 323.974C126.257 324.494 126.56 324.969 126.949 325.369C127.337 325.77 127.802 326.088 128.315 326.305C128.829 326.522 129.381 326.634 129.938 326.634H182.783C183.887 326.634 184.946 326.195 185.726 325.414C186.507 324.633 186.946 323.573 186.946 322.468C186.963 321.911 186.868 321.355 186.666 320.835C186.464 320.315 186.161 319.84 185.772 319.44C185.384 319.04 184.919 318.721 184.406 318.504C183.892 318.287 183.34 318.175 182.783 318.175Z" fill="#004CFF"/>
<path d="M337.06 237.596H147.225C146.121 237.596 145.062 238.035 144.282 238.816C143.501 239.597 143.062 240.657 143.062 241.761C143.062 242.866 143.501 243.926 144.282 244.707C145.062 245.488 146.121 245.927 147.225 245.927H337.06C338.164 245.927 339.222 245.488 340.003 244.707C340.784 243.926 341.222 242.866 341.222 241.761C341.222 240.657 340.784 239.597 340.003 238.816C339.222 238.035 338.164 237.596 337.06 237.596Z" fill="#FFA64D"/>
<path d="M208.999 277.854H19.1648C18.61 277.854 18.0608 277.964 17.5495 278.18C17.0381 278.395 16.5749 278.71 16.1871 279.107C15.7993 279.504 15.4947 279.975 15.2912 280.491C15.0877 281.008 14.9894 281.56 15.0021 282.115C15.0021 283.22 15.4406 284.279 16.2213 285.06C17.002 285.842 18.0608 286.281 19.1648 286.281H208.999C210.103 286.281 211.162 285.842 211.943 285.06C212.723 284.279 213.162 283.22 213.162 282.115C213.175 281.56 213.076 281.008 212.873 280.491C212.669 279.975 212.365 279.504 211.977 279.107C211.589 278.71 211.126 278.395 210.615 278.18C210.103 277.964 209.554 277.854 208.999 277.854Z" fill="#004CFF"/>
<path d="M278.304 257.693H88.4694C87.3654 257.693 86.3066 258.132 85.5259 258.913C84.7452 259.694 84.3066 260.754 84.3066 261.859C84.3066 262.406 84.4143 262.947 84.6235 263.453C84.8327 263.958 85.1393 264.417 85.5259 264.804C85.9124 265.191 86.3713 265.498 86.8764 265.707C87.3814 265.917 87.9227 266.024 88.4694 266.024H278.304C278.85 266.024 279.392 265.917 279.897 265.707C280.402 265.498 280.861 265.191 281.247 264.804C281.634 264.417 281.94 263.958 282.15 263.453C282.359 262.947 282.466 262.406 282.466 261.859C282.466 260.754 282.028 259.694 281.247 258.913C280.467 258.132 279.408 257.693 278.304 257.693Z" fill="#004CFF"/>
<path d="M373.38 237.596H356.602C355.498 237.596 354.439 238.035 353.659 238.816C352.878 239.597 352.439 240.657 352.439 241.761C352.439 242.866 352.878 243.926 353.659 244.707C354.439 245.488 355.498 245.927 356.602 245.927H373.38C374.484 245.927 375.543 245.488 376.324 244.707C377.104 243.926 377.543 242.866 377.543 241.761C377.543 240.657 377.104 239.597 376.324 238.816C375.543 238.035 374.484 237.596 373.38 237.596Z" fill="#FFA64D"/>
<path d="M311.956 277.854H295.178C294.623 277.854 294.074 277.964 293.562 278.18C293.051 278.395 292.588 278.71 292.2 279.107C291.812 279.504 291.507 279.975 291.304 280.491C291.1 281.008 291.002 281.56 291.015 282.115C291.015 283.22 291.453 284.279 292.234 285.06C293.015 285.842 294.073 286.281 295.178 286.281H311.956C312.502 286.281 313.044 286.173 313.549 285.963C314.054 285.754 314.513 285.447 314.899 285.06C315.286 284.674 315.592 284.214 315.802 283.709C316.011 283.204 316.118 282.662 316.118 282.115C316.131 281.56 316.033 281.008 315.829 280.491C315.626 279.975 315.321 279.504 314.933 279.107C314.546 278.71 314.082 278.395 313.571 278.18C313.06 277.964 312.51 277.854 311.956 277.854Z" fill="#004CFF"/>
<path d="M208.999 334.393H19.1647C18.0607 334.393 17.0019 334.832 16.2212 335.613C15.4405 336.394 15.002 337.454 15.002 338.559C15.002 339.664 15.4405 340.723 16.2212 341.504C17.0019 342.286 18.0607 342.724 19.1647 342.724H208.999C210.103 342.724 211.162 342.286 211.943 341.504C212.723 340.723 213.162 339.664 213.162 338.559C213.162 337.454 212.723 336.394 211.943 335.613C211.162 334.832 210.103 334.393 208.999 334.393Z" fill="#004CFF"/>
<path d="M242.046 334.393H225.268C224.722 334.393 224.18 334.501 223.675 334.71C223.17 334.92 222.711 335.226 222.325 335.613C221.938 336 221.632 336.459 221.422 336.965C221.213 337.47 221.105 338.012 221.105 338.559C221.105 339.106 221.213 339.648 221.422 340.153C221.632 340.658 221.938 341.118 222.325 341.504C222.711 341.891 223.17 342.198 223.675 342.407C224.18 342.617 224.722 342.724 225.268 342.724H242.046C243.15 342.724 244.209 342.286 244.99 341.504C245.771 340.723 246.209 339.664 246.209 338.559C246.209 337.454 245.771 336.394 244.99 335.613C244.209 334.832 243.15 334.393 242.046 334.393Z" fill="#004CFF"/>
<path d="M229.495 298.014H212.716C211.612 298.014 210.554 298.453 209.773 299.235C208.992 300.016 208.554 301.075 208.554 302.18C208.554 302.727 208.661 303.269 208.871 303.774C209.08 304.28 209.386 304.739 209.773 305.126C210.16 305.513 210.618 305.819 211.123 306.029C211.628 306.238 212.17 306.346 212.716 306.346H229.495C230.041 306.346 230.583 306.238 231.088 306.029C231.593 305.819 232.052 305.513 232.438 305.126C232.825 304.739 233.131 304.28 233.34 303.774C233.55 303.269 233.657 302.727 233.657 302.18C233.657 301.075 233.219 300.016 232.438 299.235C231.657 298.453 230.599 298.014 229.495 298.014Z" fill="#004CFF"/>
<path d="M72.0094 318.175H19.1647C18.0607 318.175 17.0019 318.614 16.2212 319.395C15.4405 320.177 15.0019 321.236 15.0019 322.341C14.9849 322.899 15.08 323.454 15.2816 323.974C15.4831 324.494 15.7871 324.969 16.1753 325.369C16.5636 325.77 17.0282 326.088 17.5418 326.305C18.0553 326.522 18.6072 326.634 19.1647 326.634H72.0094C73.1135 326.634 74.1723 326.195 74.953 325.414C75.7336 324.633 76.1722 323.573 76.1722 322.468C76.1892 321.911 76.0941 321.355 75.8926 320.835C75.691 320.315 75.3871 319.84 74.9988 319.44C74.6106 319.04 74.1459 318.721 73.6324 318.504C73.1189 318.287 72.567 318.175 72.0094 318.175Z" fill="#85E8FF"/>
<path d="M105.787 318.175H89.0094C87.9164 318.192 86.8738 318.638 86.1068 319.418C85.3399 320.197 84.91 321.247 84.9102 322.341C84.8932 322.893 84.9863 323.443 85.1839 323.959C85.3816 324.475 85.6798 324.947 86.0613 325.347C86.4428 325.746 86.9 326.066 87.4061 326.287C87.9122 326.508 88.4572 326.626 89.0094 326.634H105.787C106.892 326.634 107.95 326.195 108.731 325.414C109.512 324.633 109.95 323.573 109.95 322.468C109.972 321.909 109.88 321.352 109.68 320.83C109.48 320.308 109.176 319.831 108.787 319.43C108.398 319.029 107.931 318.711 107.416 318.495C106.9 318.279 106.346 318.17 105.787 318.175Z" fill="#85E8FF"/>
<path d="M321.584 207.768H240.14C239.221 207.764 238.31 207.942 237.46 208.292C236.61 208.642 235.838 209.157 235.188 209.808C234.538 210.458 234.023 211.231 233.673 212.082C233.323 212.932 233.145 213.844 233.149 214.764C233.149 216.619 233.886 218.399 235.197 219.711C236.508 221.023 238.286 221.76 240.14 221.76H321.584C323.436 221.751 325.209 221.011 326.518 219.701C327.828 218.391 328.567 216.617 328.575 214.764C328.575 213.845 328.394 212.935 328.043 212.087C327.692 211.238 327.177 210.467 326.527 209.817C325.878 209.167 325.108 208.652 324.259 208.3C323.411 207.949 322.502 207.768 321.584 207.768Z" fill="#C7D0E6"/>
<path d="M201.563 400.504H21.9928C20.1413 400.512 18.368 401.252 17.0588 402.562C15.7495 403.872 15.0103 405.647 15.002 407.5C15.0019 409.358 15.7375 411.141 17.0476 412.458C18.3577 413.775 20.1358 414.519 21.9928 414.527H201.563C203.42 414.519 205.198 413.775 206.509 412.458C207.819 411.141 208.554 409.358 208.554 407.5C208.546 405.647 207.807 403.872 206.497 402.562C205.188 401.252 203.415 400.512 201.563 400.504Z" fill="#C7D0E6"/>
<path d="M128.032 430.3H19.1647C18.0607 430.3 17.0019 430.739 16.2212 431.52C15.4405 432.301 15.002 433.361 15.002 434.465C15.002 435.57 15.4405 436.63 16.2212 437.411C17.0019 438.192 18.0607 438.631 19.1647 438.631H128.032C129.136 438.631 130.195 438.192 130.975 437.411C131.756 436.63 132.195 435.57 132.195 434.465C132.199 433.917 132.094 433.374 131.886 432.866C131.679 432.359 131.372 431.898 130.985 431.51C130.597 431.123 130.137 430.816 129.63 430.608C129.123 430.4 128.58 430.295 128.032 430.3Z" fill="#004CFF"/>
<path d="M128.032 490.75H19.1647C18.0607 490.75 17.0019 491.189 16.2212 491.971C15.4405 492.752 15.002 493.811 15.002 494.916C15.002 496.021 15.4405 497.081 16.2212 497.862C17.0019 498.643 18.0607 499.082 19.1647 499.082H128.032C128.58 499.086 129.123 498.981 129.63 498.773C130.137 498.566 130.597 498.259 130.985 497.871C131.372 497.484 131.679 497.023 131.886 496.515C132.094 496.008 132.199 495.464 132.195 494.916C132.195 493.811 131.756 492.752 130.975 491.971C130.195 491.189 129.136 490.75 128.032 490.75Z" fill="#004CFF"/>
<path d="M72.0095 450.46H19.1647C18.0607 450.46 17.0019 450.899 16.2212 451.681C15.4405 452.462 15.002 453.521 15.002 454.626C15.002 455.731 15.4405 456.791 16.2212 457.572C17.0019 458.353 18.0607 458.792 19.1647 458.792H72.0095C73.1135 458.792 74.1723 458.353 74.953 457.572C75.7336 456.791 76.1722 455.731 76.1722 454.626C76.1722 453.521 75.7336 452.462 74.953 451.681C74.1723 450.899 73.1135 450.46 72.0095 450.46Z" fill="#004CFF"/>
<path d="M278.304 470.621H225.46C224.356 470.621 223.297 471.06 222.516 471.841C221.735 472.623 221.297 473.682 221.297 474.787C221.297 475.892 221.735 476.951 222.516 477.733C223.297 478.514 224.356 478.953 225.46 478.953H278.304C279.408 478.953 280.467 478.514 281.248 477.733C282.029 476.951 282.467 475.892 282.467 474.787C282.467 473.682 282.029 472.623 281.248 471.841C280.467 471.06 279.408 470.621 278.304 470.621Z" fill="#004CFF"/>
<path d="M195.716 490.75H142.872C141.768 490.75 140.709 491.189 139.928 491.971C139.148 492.752 138.709 493.811 138.709 494.916C138.709 496.021 139.148 497.081 139.928 497.862C140.709 498.643 141.768 499.082 142.872 499.082H195.716C196.263 499.082 196.804 498.974 197.31 498.765C197.815 498.555 198.273 498.249 198.66 497.862C199.047 497.475 199.353 497.016 199.562 496.51C199.772 496.005 199.879 495.463 199.879 494.916C199.879 494.369 199.772 493.827 199.562 493.322C199.353 492.817 199.047 492.357 198.66 491.971C198.273 491.584 197.815 491.277 197.31 491.068C196.804 490.858 196.263 490.75 195.716 490.75Z" fill="#FFA64D"/>
<path d="M182.783 511.07H129.938C128.834 511.07 127.775 511.509 126.995 512.29C126.214 513.071 125.775 514.131 125.775 515.236C125.775 516.341 126.214 517.4 126.995 518.181C127.775 518.963 128.834 519.401 129.938 519.401H182.783C183.887 519.401 184.946 518.963 185.726 518.181C186.507 517.4 186.946 516.341 186.946 515.236C186.946 514.131 186.507 513.071 185.726 512.29C184.946 511.509 183.887 511.07 182.783 511.07Z" fill="#004CFF"/>
<path d="M337.06 430.3H147.225C146.121 430.3 145.062 430.739 144.282 431.52C143.501 432.301 143.062 433.361 143.062 434.466C143.062 435.57 143.501 436.63 144.282 437.411C145.062 438.192 146.121 438.631 147.225 438.631H337.06C338.164 438.631 339.222 438.192 340.003 437.411C340.784 436.63 341.222 435.57 341.222 434.466C341.222 433.361 340.784 432.301 340.003 431.52C339.222 430.739 338.164 430.3 337.06 430.3Z" fill="#004CFF"/>
<path d="M208.999 470.621H19.1647C18.0607 470.621 17.0019 471.06 16.2212 471.841C15.4405 472.623 15.002 473.682 15.002 474.787C15.002 475.892 15.4405 476.951 16.2212 477.733C17.0019 478.514 18.0607 478.953 19.1647 478.953H208.999C210.103 478.953 211.162 478.514 211.943 477.733C212.723 476.951 213.162 475.892 213.162 474.787C213.162 473.682 212.723 472.623 211.943 471.841C211.162 471.06 210.103 470.621 208.999 470.621Z" fill="#85E8FF"/>
<path d="M278.304 450.46H88.4694C87.3654 450.46 86.3066 450.899 85.5259 451.681C84.7452 452.462 84.3066 453.521 84.3066 454.626C84.3066 455.731 84.7452 456.791 85.5259 457.572C86.3066 458.353 87.3654 458.792 88.4694 458.792H278.304C279.408 458.792 280.467 458.353 281.247 457.572C282.028 456.791 282.466 455.731 282.466 454.626C282.466 453.521 282.028 452.462 281.247 451.681C280.467 450.899 279.408 450.46 278.304 450.46Z" fill="#85E8FF"/>
<path d="M373.38 430.3H356.602C356.054 430.295 355.511 430.4 355.004 430.608C354.497 430.816 354.037 431.123 353.649 431.51C353.262 431.898 352.956 432.359 352.748 432.866C352.54 433.374 352.435 433.917 352.44 434.465C352.44 435.57 352.878 436.63 353.659 437.411C354.439 438.192 355.498 438.631 356.602 438.631H373.38C374.484 438.631 375.543 438.192 376.324 437.411C377.105 436.63 377.543 435.57 377.543 434.465C377.543 433.361 377.105 432.301 376.324 431.52C375.543 430.739 374.484 430.3 373.38 430.3Z" fill="#004CFF"/>
<path d="M311.956 470.621H295.177C294.073 470.621 293.015 471.06 292.234 471.842C291.453 472.623 291.015 473.682 291.015 474.787C291.015 475.892 291.453 476.952 292.234 477.733C293.015 478.514 294.073 478.953 295.177 478.953H311.956C312.502 478.953 313.044 478.845 313.549 478.636C314.054 478.426 314.513 478.12 314.899 477.733C315.286 477.346 315.592 476.887 315.801 476.381C316.011 475.876 316.118 475.334 316.118 474.787C316.123 474.239 316.018 473.695 315.81 473.188C315.602 472.681 315.296 472.22 314.908 471.832C314.521 471.444 314.061 471.138 313.554 470.93C313.047 470.722 312.503 470.617 311.956 470.621Z" fill="#004CFF"/>
<path d="M208.999 527.129H19.1647C18.0607 527.129 17.0019 527.568 16.2212 528.349C15.4405 529.13 15.002 530.19 15.002 531.295C15.002 532.399 15.4405 533.459 16.2212 534.24C17.0019 535.021 18.0607 535.46 19.1647 535.46H208.999C210.103 535.46 211.162 535.021 211.943 534.24C212.723 533.459 213.162 532.399 213.162 531.295C213.162 530.19 212.723 529.13 211.943 528.349C211.162 527.568 210.103 527.129 208.999 527.129Z" fill="#71ABFF"/>
<path d="M242.046 527.129H225.268C224.722 527.129 224.18 527.237 223.675 527.446C223.17 527.655 222.711 527.962 222.325 528.349C221.938 528.736 221.632 529.195 221.422 529.7C221.213 530.206 221.105 530.748 221.105 531.295C221.105 531.842 221.213 532.383 221.422 532.889C221.632 533.394 221.938 533.853 222.325 534.24C222.711 534.627 223.17 534.934 223.675 535.143C224.18 535.353 224.722 535.46 225.268 535.46H242.046C243.15 535.46 244.209 535.021 244.99 534.24C245.771 533.459 246.209 532.399 246.209 531.295C246.209 530.19 245.771 529.13 244.99 528.349C244.209 527.568 243.15 527.129 242.046 527.129Z" fill="#71ABFF"/>
<path d="M229.495 490.75H212.716C211.612 490.75 210.554 491.189 209.773 491.971C208.992 492.752 208.554 493.811 208.554 494.916C208.554 496.021 208.992 497.081 209.773 497.862C210.554 498.643 211.612 499.082 212.716 499.082H229.495C230.599 499.082 231.657 498.643 232.438 497.862C233.219 497.081 233.657 496.021 233.657 494.916C233.657 493.811 233.219 492.752 232.438 491.971C231.657 491.189 230.599 490.75 229.495 490.75Z" fill="#FFA64D"/>
<path d="M72.0095 511.07H19.1647C18.0877 511.069 17.0522 511.486 16.276 512.233C15.4997 512.981 15.0431 514 15.002 515.077C15.002 516.182 15.4405 517.241 16.2212 518.022C17.0019 518.804 18.0607 519.243 19.1647 519.243H72.0095C73.1135 519.243 74.1723 518.804 74.953 518.022C75.7336 517.241 76.1722 516.182 76.1722 515.077C76.1311 514 75.6744 512.981 74.8982 512.233C74.1219 511.486 73.0865 511.069 72.0095 511.07Z" fill="#004CFF"/>
<path d="M105.787 511.07H89.0094C87.9433 511.086 86.9239 511.51 86.1612 512.255C85.3985 513.001 84.9507 514.011 84.9102 515.077C84.9102 516.182 85.3487 517.241 86.1294 518.022C86.9101 518.804 87.9689 519.243 89.0729 519.243H105.851C106.399 519.247 106.942 519.142 107.449 518.934C107.956 518.726 108.417 518.42 108.804 518.032C109.191 517.644 109.498 517.183 109.706 516.676C109.913 516.169 110.018 515.625 110.014 515.077C109.972 513.989 109.507 512.96 108.717 512.211C107.927 511.462 106.875 511.053 105.787 511.07Z" fill="#004CFF"/>
<path d="M321.584 400.504H240.14C238.286 400.504 236.508 401.241 235.197 402.553C233.886 403.865 233.149 405.644 233.149 407.5C233.145 408.421 233.323 409.334 233.672 410.187C234.022 411.039 234.536 411.814 235.186 412.467C235.835 413.12 236.607 413.638 237.458 413.992C238.308 414.345 239.22 414.527 240.14 414.527H321.584C323.441 414.519 325.219 413.775 326.529 412.458C327.84 411.141 328.575 409.358 328.575 407.5C328.567 405.647 327.828 403.872 326.518 402.562C325.209 401.252 323.436 400.512 321.584 400.504Z" fill="#C7D0E6"/>
<path d="M1078.98 15.0002H1258.55C1259.48 14.9875 1260.4 15.1591 1261.26 15.5051C1262.12 15.851 1262.9 16.3643 1263.56 17.0152C1264.22 17.6661 1264.74 18.4415 1265.1 19.2966C1265.45 20.1517 1265.64 21.0692 1265.64 21.996C1265.64 22.9159 1265.47 23.8275 1265.12 24.6782C1264.77 25.5289 1264.25 26.3018 1263.6 26.9522C1262.95 27.6027 1262.18 28.1178 1261.33 28.4679C1260.48 28.818 1259.57 28.9961 1258.65 28.9919H1078.98C1077.13 28.9919 1075.35 28.2548 1074.04 26.9428C1072.73 25.6309 1071.99 23.8514 1071.99 21.996C1072 20.1432 1072.74 18.3686 1074.05 17.0584C1075.36 15.7483 1077.13 15.0085 1078.98 15.0002Z" fill="#C7D0E6"/>
<path d="M1152.51 44.7643H1261.38C1261.94 44.7516 1262.49 44.8499 1263 45.0536C1263.52 45.2572 1263.99 45.562 1264.39 45.9501C1264.78 46.3382 1265.1 46.8018 1265.31 47.3135C1265.53 47.8252 1265.64 48.3748 1265.64 48.93C1265.65 49.4905 1265.54 50.047 1265.33 50.5661C1265.12 51.0853 1264.81 51.5564 1264.41 51.9513C1264.01 52.3462 1263.54 52.6567 1263.02 52.8643C1262.5 53.0719 1261.94 53.1722 1261.38 53.1593H1152.51C1151.41 53.1593 1150.35 52.7204 1149.57 51.9392C1148.79 51.158 1148.35 50.0984 1148.35 48.9936C1148.34 48.4412 1148.44 47.8927 1148.65 47.3799C1148.85 46.8671 1149.16 46.4004 1149.55 46.0068C1149.94 45.6132 1150.4 45.3007 1150.91 45.0873C1151.42 44.874 1151.96 44.7642 1152.51 44.7643Z" fill="#71ABFF"/>
<path d="M1152.51 105.247H1261.38C1261.94 105.234 1262.49 105.332 1263 105.536C1263.52 105.74 1263.99 106.044 1264.39 106.433C1264.78 106.821 1265.1 107.284 1265.31 107.796C1265.53 108.308 1265.64 108.857 1265.64 109.412C1265.64 109.968 1265.53 110.517 1265.31 111.029C1265.1 111.541 1264.78 112.004 1264.39 112.392C1263.99 112.78 1263.52 113.085 1263 113.289C1262.49 113.492 1261.94 113.591 1261.38 113.578H1152.51C1151.41 113.578 1150.35 113.139 1149.57 112.358C1148.79 111.577 1148.35 110.517 1148.35 109.412C1148.35 108.308 1148.79 107.248 1149.57 106.467C1150.35 105.686 1151.41 105.247 1152.51 105.247Z" fill="#004CFF"/>
<path d="M1208.44 64.925H1261.29C1261.85 64.8993 1262.41 64.987 1262.93 65.1828C1263.46 65.3786 1263.94 65.6786 1264.34 66.0646C1264.75 66.4506 1265.07 66.9148 1265.3 67.4293C1265.52 67.9439 1265.64 68.4981 1265.64 69.0589C1265.64 70.1638 1265.2 71.2233 1264.42 72.0046C1263.64 72.7858 1262.58 73.2247 1261.48 73.2247H1208.44C1207.35 73.1997 1206.32 72.7499 1205.56 71.9713C1204.8 71.1928 1204.37 70.1474 1204.37 69.0589C1204.38 67.976 1204.81 66.9387 1205.57 66.167C1206.33 65.3953 1207.36 64.9498 1208.44 64.925Z" fill="#85E8FF"/>
<path d="M1002.24 84.9587H1055.09C1056.19 84.9587 1057.25 85.3976 1058.03 86.1788C1058.81 86.9601 1059.25 88.0196 1059.25 89.1245C1059.25 90.2293 1058.81 91.2888 1058.03 92.0701C1057.25 92.8513 1056.19 93.2902 1055.09 93.2902H1002.24C1001.14 93.2902 1000.08 92.8513 999.298 92.0701C998.518 91.2888 998.079 90.2293 998.079 89.1245C998.079 88.0196 998.518 86.9601 999.298 86.1788C1000.08 85.3976 1001.14 84.9587 1002.24 84.9587Z" fill="#004CFF"/>
<path d="M1084.86 105.247H1137.67C1138.76 105.28 1139.78 105.733 1140.54 106.511C1141.29 107.288 1141.71 108.329 1141.71 109.412C1141.71 110.495 1141.29 111.536 1140.54 112.314C1139.78 113.092 1138.76 113.545 1137.67 113.578H1084.86C1084.31 113.578 1083.77 113.47 1083.27 113.261C1082.76 113.052 1082.3 112.745 1081.92 112.358C1081.53 111.971 1081.22 111.512 1081.02 111.006C1080.81 110.501 1080.7 109.959 1080.7 109.412C1080.7 108.865 1080.81 108.324 1081.02 107.818C1081.22 107.313 1081.53 106.854 1081.92 106.467C1082.3 106.08 1082.76 105.773 1083.27 105.564C1083.77 105.354 1084.31 105.247 1084.86 105.247Z" fill="#004CFF"/>
<path d="M1097.76 125.407H1150.61C1151.69 125.407 1152.74 125.833 1153.52 126.594C1154.3 127.354 1154.74 128.39 1154.77 129.478C1154.77 130.583 1154.33 131.642 1153.55 132.423C1152.77 133.205 1151.71 133.644 1150.61 133.644H1097.76C1096.66 133.644 1095.6 133.205 1094.82 132.423C1094.04 131.642 1093.6 130.583 1093.6 129.478C1093.62 128.39 1094.07 127.354 1094.85 126.594C1095.63 125.833 1096.67 125.407 1097.76 125.407Z" fill="#004CFF"/>
<path d="M943.486 44.7644H1133.32C1134.42 44.7644 1135.48 45.2033 1136.26 45.9845C1137.05 46.7657 1137.48 47.8253 1137.48 48.9301C1137.49 49.4825 1137.39 50.031 1137.19 50.5438C1136.98 51.0566 1136.67 51.5233 1136.29 51.9169C1135.9 52.3105 1135.44 52.6231 1134.93 52.8364C1134.42 53.0497 1133.87 53.1595 1133.32 53.1594H943.486C942.382 53.1594 941.324 52.7206 940.543 51.9393C939.762 51.1581 939.324 50.0985 939.324 48.9937C939.315 48.4413 939.417 47.8928 939.622 47.38C939.828 46.8673 940.133 46.4005 940.52 46.0069C940.908 45.6133 941.369 45.3008 941.879 45.0875C942.388 44.8742 942.934 44.7643 943.486 44.7644Z" fill="#004CFF"/>
<path d="M1071.55 84.9587H1261.38C1261.95 84.9454 1262.51 85.0477 1263.03 85.2591C1263.56 85.4706 1264.03 85.7869 1264.43 86.1886C1264.83 86.5903 1265.14 87.0691 1265.35 87.5958C1265.56 88.1224 1265.66 88.6858 1265.64 89.2516C1265.64 90.3564 1265.2 91.416 1264.42 92.1972C1263.64 92.9784 1262.58 93.4173 1261.48 93.4173H1071.55C1070.44 93.4173 1069.38 92.9784 1068.6 92.1972C1067.82 91.416 1067.38 90.3564 1067.38 89.2516C1067.37 88.6939 1067.46 88.1385 1067.66 87.6183C1067.87 87.0981 1068.17 86.6238 1068.56 86.2234C1068.95 85.823 1069.41 85.5047 1069.92 85.2875C1070.44 85.0702 1070.99 84.9584 1071.55 84.9587Z" fill="#004CFF"/>
<path d="M1002.24 64.925H1192.08C1193.17 64.925 1194.23 65.3595 1195.01 66.1339C1195.79 66.9083 1196.23 67.9597 1196.24 69.059C1196.24 70.1638 1195.8 71.2233 1195.02 72.0046C1194.24 72.7858 1193.18 73.2247 1192.08 73.2247H1002.24C1001.14 73.2247 1000.08 72.7858 999.298 72.0046C998.518 71.2233 998.079 70.1638 998.079 69.059C998.087 67.9597 998.53 66.9083 999.31 66.1339C1000.09 65.3595 1001.14 64.925 1002.24 64.925Z" fill="#71ABFF"/>
<path d="M907.165 44.7644H923.943C925.047 44.7644 926.106 45.2033 926.887 45.9845C927.667 46.7657 928.106 47.8253 928.106 48.9301C928.119 49.4837 928.02 50.0341 927.816 50.5488C927.613 51.0636 927.308 51.5321 926.919 51.9265C926.531 52.321 926.068 52.6334 925.556 52.8452C925.045 53.057 924.497 53.1638 923.943 53.1594H907.165C906.061 53.1594 905.002 52.7206 904.222 51.9393C903.441 51.1581 903.002 50.0985 903.002 48.9937C902.994 48.4413 903.095 47.8928 903.301 47.38C903.506 46.8673 903.812 46.4005 904.199 46.0069C904.586 45.6133 905.048 45.3008 905.557 45.0875C906.067 44.8742 906.613 44.7643 907.165 44.7644Z" fill="#004CFF"/>
<path d="M968.59 84.9587H985.368C986.472 84.9587 987.531 85.3976 988.311 86.1788C989.092 86.9601 989.53 88.0196 989.53 89.1245C989.53 90.2293 989.092 91.2888 988.311 92.0701C987.531 92.8513 986.472 93.2902 985.368 93.2902H968.59C967.485 93.2902 966.427 92.8513 965.646 92.0701C964.865 91.2888 964.427 90.2293 964.427 89.1245C964.427 88.0196 964.865 86.9601 965.646 86.1788C966.427 85.3976 967.485 84.9587 968.59 84.9587Z" fill="#004CFF"/>
<path d="M1071.55 141.625H1261.38C1261.94 141.612 1262.49 141.711 1263 141.914C1263.52 142.118 1263.99 142.423 1264.39 142.811C1264.78 143.199 1265.1 143.663 1265.31 144.174C1265.53 144.686 1265.64 145.236 1265.64 145.791C1265.64 146.896 1265.2 147.955 1264.42 148.736C1263.64 149.518 1262.58 149.957 1261.48 149.957H1071.55C1070.44 149.957 1069.38 149.518 1068.6 148.736C1067.82 147.955 1067.38 146.896 1067.38 145.791C1067.38 144.686 1067.82 143.626 1068.6 142.845C1069.38 142.064 1070.44 141.625 1071.55 141.625Z" fill="#004CFF"/>
<path d="M1038.5 141.625H1055.28C1056.38 141.625 1057.44 142.064 1058.22 142.845C1059 143.627 1059.44 144.686 1059.44 145.791C1059.44 146.896 1059 147.955 1058.22 148.737C1057.44 149.518 1056.38 149.957 1055.28 149.957H1038.5C1037.39 149.957 1036.34 149.518 1035.56 148.737C1034.77 147.955 1034.34 146.896 1034.34 145.791C1034.34 144.686 1034.77 143.627 1035.56 142.845C1036.34 142.064 1037.39 141.625 1038.5 141.625Z" fill="#004CFF"/>
<path d="M1051.05 105.247H1067.83C1068.93 105.247 1069.99 105.685 1070.77 106.467C1071.55 107.248 1071.99 108.307 1071.99 109.412C1071.99 110.517 1071.55 111.577 1070.77 112.358C1069.99 113.139 1068.93 113.578 1067.83 113.578H1051.05C1049.95 113.578 1048.89 113.139 1048.11 112.358C1047.33 111.577 1046.89 110.517 1046.89 109.412C1046.89 108.307 1047.33 107.248 1048.11 106.467C1048.89 105.685 1049.95 105.247 1051.05 105.247Z" fill="#004CFF"/>
<path d="M1208.44 125.407H1261.29C1261.84 125.382 1262.39 125.468 1262.92 125.659C1263.44 125.851 1263.91 126.146 1264.32 126.525C1264.73 126.904 1265.05 127.361 1265.28 127.868C1265.5 128.375 1265.63 128.922 1265.64 129.478C1265.64 130.583 1265.2 131.642 1264.42 132.423C1263.64 133.205 1262.58 133.644 1261.48 133.644H1208.44C1207.35 133.619 1206.32 133.169 1205.56 132.39C1204.8 131.612 1204.37 130.566 1204.37 129.478C1204.4 128.406 1204.83 127.385 1205.59 126.627C1206.35 125.868 1207.37 125.432 1208.44 125.407Z" fill="#FFA64D"/>
<path d="M1174.76 125.408H1191.54C1192.63 125.399 1193.68 125.821 1194.47 126.583C1195.25 127.344 1195.71 128.384 1195.73 129.478C1195.73 130.583 1195.29 131.642 1194.51 132.424C1193.73 133.205 1192.67 133.644 1191.57 133.644H1174.76C1173.65 133.644 1172.59 133.205 1171.81 132.424C1171.03 131.642 1170.59 130.583 1170.59 129.478C1170.62 128.39 1171.07 127.355 1171.85 126.594C1172.63 125.833 1173.67 125.407 1174.76 125.408Z" fill="#FFA64D"/>
<path d="M958.962 15H1040.41C1042.26 15 1044.04 15.736 1045.36 17.0471C1046.68 18.3582 1047.42 20.1375 1047.43 21.9959C1047.43 22.9173 1047.25 23.8296 1046.89 24.6804C1046.54 25.5313 1046.02 26.3039 1045.37 26.954C1044.72 27.604 1043.94 28.1186 1043.09 28.4683C1042.24 28.818 1041.33 28.9959 1040.41 28.9917H958.962C957.107 28.9917 955.329 28.2547 954.018 26.9427C952.707 25.6307 951.971 23.8513 951.971 21.9959C951.979 20.143 952.718 18.3685 954.028 17.0583C955.337 15.7481 957.11 15.0084 958.962 15Z" fill="#C7D0E6"/>
<path d="M1078.98 207.768H1258.55C1259.47 207.764 1260.38 207.942 1261.23 208.292C1262.08 208.642 1262.86 209.157 1263.51 209.808C1264.16 210.458 1264.67 211.231 1265.02 212.082C1265.37 212.932 1265.55 213.844 1265.54 214.764C1265.54 216.619 1264.81 218.399 1263.5 219.711C1262.18 221.023 1260.41 221.76 1258.55 221.76H1078.98C1077.13 221.751 1075.36 221.011 1074.05 219.701C1072.74 218.391 1072 216.617 1071.99 214.764C1071.99 212.908 1072.73 211.129 1074.04 209.817C1075.35 208.505 1077.13 207.768 1078.98 207.768Z" fill="#C7D0E6"/>
<path d="M1152.51 237.596H1261.38C1261.93 237.583 1262.48 237.679 1262.99 237.879C1263.5 238.079 1263.97 238.378 1264.36 238.759C1264.76 239.14 1265.08 239.596 1265.29 240.101C1265.51 240.605 1265.63 241.148 1265.64 241.698C1265.64 242.803 1265.2 243.862 1264.42 244.643C1263.64 245.425 1262.58 245.863 1261.48 245.863H1152.51C1151.41 245.863 1150.35 245.425 1149.57 244.643C1148.79 243.862 1148.35 242.803 1148.35 241.698C1148.37 240.604 1148.81 239.561 1149.59 238.793C1150.37 238.026 1151.42 237.595 1152.51 237.596Z" fill="#004CFF"/>
<path d="M1152.51 298.015H1261.38C1261.94 298.002 1262.49 298.1 1263 298.304C1263.52 298.507 1263.99 298.812 1264.39 299.2C1264.78 299.588 1265.1 300.052 1265.31 300.564C1265.53 301.075 1265.64 301.625 1265.64 302.18C1265.64 302.727 1265.53 303.269 1265.32 303.774C1265.11 304.28 1264.81 304.739 1264.42 305.126C1264.03 305.513 1263.57 305.819 1263.07 306.029C1262.56 306.238 1262.02 306.346 1261.48 306.346H1152.51C1151.97 306.346 1151.43 306.238 1150.92 306.029C1150.42 305.819 1149.96 305.513 1149.57 305.126C1149.18 304.739 1148.88 304.28 1148.67 303.774C1148.46 303.269 1148.35 302.727 1148.35 302.18C1148.35 301.075 1148.79 300.016 1149.57 299.235C1150.35 298.453 1151.41 298.015 1152.51 298.015Z" fill="#71ABFF"/>
<path d="M1208.44 257.693H1261.29C1261.85 257.667 1262.41 257.756 1262.94 257.953C1263.46 258.151 1263.95 258.454 1264.35 258.843C1264.76 259.233 1265.08 259.701 1265.31 260.219C1265.53 260.737 1265.64 261.295 1265.64 261.859C1265.64 262.406 1265.53 262.947 1265.32 263.453C1265.11 263.958 1264.81 264.417 1264.42 264.804C1264.03 265.191 1263.57 265.498 1263.07 265.707C1262.56 265.917 1262.02 266.024 1261.48 266.024H1208.44C1207.89 266.024 1207.35 265.917 1206.85 265.707C1206.34 265.498 1205.88 265.191 1205.5 264.804C1205.11 264.417 1204.8 263.958 1204.6 263.453C1204.39 262.947 1204.28 262.406 1204.28 261.859C1204.28 260.754 1204.72 259.694 1205.5 258.913C1206.28 258.132 1207.34 257.693 1208.44 257.693Z" fill="#004CFF"/>
<path d="M1002.24 277.854H1055.09C1055.64 277.854 1056.19 277.964 1056.7 278.18C1057.21 278.395 1057.68 278.71 1058.06 279.107C1058.45 279.504 1058.76 279.975 1058.96 280.491C1059.16 281.008 1059.26 281.56 1059.25 282.115C1059.25 283.22 1058.81 284.279 1058.03 285.06C1057.25 285.842 1056.19 286.281 1055.09 286.281H1002.24C1001.14 286.281 1000.08 285.842 999.298 285.06C998.518 284.279 998.079 283.22 998.079 282.115C998.067 281.56 998.165 281.008 998.368 280.491C998.572 279.975 998.876 279.504 999.264 279.107C999.652 278.71 1000.12 278.395 1000.63 278.18C1001.14 277.964 1001.69 277.854 1002.24 277.854Z" fill="#004CFF"/>
<path d="M1084.86 298.015H1137.67C1138.76 298.04 1139.79 298.49 1140.54 299.27C1141.3 300.049 1141.72 301.095 1141.71 302.18C1141.71 302.727 1141.6 303.269 1141.39 303.774C1141.18 304.28 1140.88 304.739 1140.49 305.126C1140.1 305.513 1139.65 305.82 1139.14 306.029C1138.63 306.238 1138.09 306.346 1137.55 306.346H1084.86C1084.31 306.346 1083.77 306.238 1083.27 306.029C1082.76 305.82 1082.3 305.513 1081.92 305.126C1081.53 304.739 1081.22 304.28 1081.02 303.774C1080.81 303.269 1080.7 302.727 1080.7 302.18C1080.69 301.632 1080.8 301.088 1081.01 300.581C1081.21 300.074 1081.52 299.613 1081.91 299.225C1082.3 298.838 1082.76 298.531 1083.26 298.323C1083.77 298.115 1084.31 298.01 1084.86 298.015Z" fill="#71ABFF"/>
<path d="M1097.76 318.175H1150.61C1151.71 318.175 1152.77 318.614 1153.55 319.395C1154.33 320.177 1154.77 321.236 1154.77 322.341C1154.79 322.899 1154.69 323.454 1154.49 323.974C1154.29 324.494 1153.98 324.969 1153.6 325.369C1153.21 325.77 1152.74 326.088 1152.23 326.305C1151.72 326.522 1151.16 326.634 1150.61 326.634H1097.76C1096.66 326.634 1095.6 326.195 1094.82 325.414C1094.04 324.633 1093.6 323.573 1093.6 322.468C1093.58 321.911 1093.68 321.355 1093.88 320.835C1094.08 320.315 1094.38 319.84 1094.77 319.44C1095.16 319.04 1095.63 318.721 1096.14 318.504C1096.65 318.287 1097.2 318.175 1097.76 318.175Z" fill="#004CFF"/>
<path d="M943.486 237.596H1133.32C1134.42 237.596 1135.48 238.035 1136.26 238.816C1137.04 239.597 1137.48 240.657 1137.48 241.761C1137.48 242.866 1137.04 243.926 1136.26 244.707C1135.48 245.488 1134.42 245.927 1133.32 245.927H943.486C942.382 245.927 941.323 245.488 940.543 244.707C939.762 243.926 939.323 242.866 939.323 241.761C939.323 240.657 939.762 239.597 940.543 238.816C941.323 238.035 942.382 237.596 943.486 237.596Z" fill="#FFA64D"/>
<path d="M1071.55 277.854H1261.38C1261.94 277.841 1262.5 277.942 1263.03 278.151C1263.55 278.361 1264.02 278.674 1264.42 279.073C1264.82 279.471 1265.13 279.946 1265.34 280.469C1265.55 280.992 1265.65 281.552 1265.64 282.115C1265.64 283.22 1265.2 284.279 1264.42 285.06C1263.64 285.842 1262.58 286.28 1261.48 286.28H1071.55C1070.44 286.28 1069.38 285.842 1068.6 285.06C1067.82 284.279 1067.38 283.22 1067.38 282.115C1067.37 281.56 1067.47 281.008 1067.67 280.491C1067.88 279.975 1068.18 279.504 1068.57 279.107C1068.96 278.71 1069.42 278.395 1069.93 278.18C1070.44 277.964 1070.99 277.854 1071.55 277.854Z" fill="#004CFF"/>
<path d="M1002.24 257.693H1192.08C1193.18 257.693 1194.24 258.132 1195.02 258.913C1195.8 259.694 1196.24 260.754 1196.24 261.859C1196.24 262.406 1196.13 262.947 1195.92 263.453C1195.71 263.958 1195.41 264.417 1195.02 264.804C1194.63 265.191 1194.17 265.498 1193.67 265.707C1193.16 265.917 1192.62 266.024 1192.08 266.024H1002.24C1001.7 266.024 1001.15 265.917 1000.65 265.707C1000.14 265.498 999.685 265.191 999.298 264.804C998.912 264.417 998.605 263.958 998.396 263.453C998.187 262.947 998.079 262.406 998.079 261.859C998.079 260.754 998.518 259.694 999.298 258.913C1000.08 258.132 1001.14 257.693 1002.24 257.693Z" fill="#004CFF"/>
<path d="M907.166 237.596H923.944C925.048 237.596 926.107 238.035 926.887 238.816C927.668 239.597 928.107 240.657 928.107 241.761C928.107 242.866 927.668 243.926 926.887 244.707C926.107 245.488 925.048 245.927 923.944 245.927H907.166C906.062 245.927 905.003 245.488 904.222 244.707C903.442 243.926 903.003 242.866 903.003 241.761C903.003 240.657 903.442 239.597 904.222 238.816C905.003 238.035 906.062 237.596 907.166 237.596Z" fill="#FFA64D"/>
<path d="M968.59 277.854H985.368C985.923 277.854 986.472 277.964 986.983 278.18C987.495 278.395 987.958 278.71 988.346 279.107C988.733 279.504 989.038 279.975 989.241 280.491C989.445 281.008 989.543 281.56 989.53 282.115C989.53 283.22 989.092 284.279 988.311 285.06C987.531 285.842 986.472 286.281 985.368 286.281H968.59C968.043 286.281 967.502 286.173 966.997 285.963C966.492 285.754 966.033 285.447 965.646 285.06C965.26 284.674 964.953 284.214 964.744 283.709C964.535 283.204 964.427 282.662 964.427 282.115C964.414 281.56 964.512 281.008 964.716 280.491C964.919 279.975 965.224 279.504 965.612 279.107C966 278.71 966.463 278.395 966.974 278.18C967.486 277.964 968.035 277.854 968.59 277.854Z" fill="#004CFF"/>
<path d="M1071.55 334.393H1261.38C1262.48 334.393 1263.54 334.832 1264.32 335.613C1265.11 336.394 1265.54 337.454 1265.54 338.559C1265.54 339.664 1265.11 340.723 1264.32 341.504C1263.54 342.286 1262.48 342.724 1261.38 342.724H1071.55C1070.44 342.724 1069.38 342.286 1068.6 341.504C1067.82 340.723 1067.38 339.664 1067.38 338.559C1067.38 337.454 1067.82 336.394 1068.6 335.613C1069.38 334.832 1070.44 334.393 1071.55 334.393Z" fill="#004CFF"/>
<path d="M1038.5 334.393H1055.28C1056.38 334.393 1057.44 334.832 1058.22 335.613C1059 336.394 1059.44 337.454 1059.44 338.559C1059.44 339.664 1059 340.723 1058.22 341.504C1057.44 342.286 1056.38 342.724 1055.28 342.724H1038.5C1037.39 342.724 1036.34 342.286 1035.56 341.504C1034.77 340.723 1034.34 339.664 1034.34 338.559C1034.34 337.454 1034.77 336.394 1035.56 335.613C1036.34 334.832 1037.39 334.393 1038.5 334.393Z" fill="#004CFF"/>
<path d="M1051.05 298.014H1067.83C1068.93 298.014 1069.99 298.453 1070.77 299.235C1071.55 300.016 1071.99 301.075 1071.99 302.18C1071.99 302.727 1071.88 303.269 1071.67 303.774C1071.47 304.28 1071.16 304.739 1070.77 305.126C1070.39 305.513 1069.93 305.819 1069.42 306.029C1068.92 306.238 1068.38 306.346 1067.83 306.346H1051.05C1050.5 306.346 1049.96 306.238 1049.46 306.029C1048.95 305.819 1048.49 305.513 1048.11 305.126C1047.72 304.739 1047.41 304.28 1047.2 303.774C1047 303.269 1046.89 302.727 1046.89 302.18C1046.89 301.075 1047.33 300.016 1048.11 299.235C1048.89 298.453 1049.95 298.014 1051.05 298.014Z" fill="#004CFF"/>
<path d="M1208.44 318.175H1261.29C1261.85 318.149 1262.41 318.238 1262.94 318.436C1263.46 318.634 1263.95 318.936 1264.35 319.326C1264.76 319.715 1265.08 320.183 1265.31 320.702C1265.53 321.22 1265.64 321.778 1265.64 322.341C1265.66 322.907 1265.56 323.47 1265.35 323.997C1265.14 324.523 1264.83 325.002 1264.43 325.404C1264.03 325.806 1263.56 326.122 1263.03 326.333C1262.51 326.545 1261.95 326.647 1261.38 326.634H1208.44C1207.34 326.634 1206.28 326.195 1205.5 325.414C1204.72 324.633 1204.28 323.573 1204.28 322.468C1204.26 321.911 1204.36 321.355 1204.56 320.835C1204.76 320.315 1205.06 319.84 1205.45 319.44C1205.84 319.04 1206.3 318.721 1206.82 318.504C1207.33 318.287 1207.88 318.175 1208.44 318.175Z" fill="#85E8FF"/>
<path d="M1174.76 318.175H1191.54C1192.09 318.171 1192.63 318.276 1193.14 318.483C1193.65 318.691 1194.11 318.997 1194.5 319.384C1194.89 319.771 1195.2 320.232 1195.41 320.739C1195.62 321.247 1195.73 321.791 1195.73 322.341C1195.75 322.901 1195.65 323.459 1195.45 323.982C1195.24 324.504 1194.94 324.98 1194.55 325.381C1194.15 325.781 1193.69 326.099 1193.17 326.314C1192.65 326.53 1192.1 326.638 1191.54 326.634H1174.76C1173.65 326.634 1172.59 326.195 1171.81 325.414C1171.03 324.633 1170.59 323.573 1170.59 322.468C1170.57 321.909 1170.67 321.352 1170.87 320.83C1171.07 320.308 1171.37 319.831 1171.76 319.43C1172.15 319.029 1172.61 318.711 1173.13 318.495C1173.64 318.279 1174.2 318.17 1174.76 318.175Z" fill="#85E8FF"/>
<path d="M958.962 207.768H1040.41C1041.33 207.764 1042.24 207.942 1043.09 208.291C1043.94 208.641 1044.72 209.156 1045.37 209.806C1046.02 210.456 1046.54 211.228 1046.89 212.079C1047.25 212.93 1047.43 213.842 1047.43 214.764C1047.42 216.622 1046.68 218.401 1045.36 219.713C1044.04 221.024 1042.26 221.76 1040.41 221.76H958.962C957.11 221.751 955.337 221.011 954.028 219.701C952.718 218.391 951.979 216.617 951.971 214.764C951.971 212.908 952.707 211.129 954.018 209.817C955.329 208.505 957.107 207.768 958.962 207.768Z" fill="#C7D0E6"/>
<path d="M1078.98 400.504H1258.55C1260.41 400.504 1262.18 401.241 1263.5 402.553C1264.81 403.865 1265.54 405.644 1265.54 407.5C1265.55 408.421 1265.37 409.334 1265.02 410.187C1264.67 411.039 1264.16 411.814 1263.51 412.467C1262.86 413.12 1262.09 413.638 1261.24 413.992C1260.38 414.345 1259.47 414.527 1258.55 414.527H1078.98C1077.13 414.519 1075.35 413.775 1074.04 412.458C1072.73 411.141 1071.99 409.358 1071.99 407.5C1072 405.647 1072.74 403.872 1074.05 402.562C1075.36 401.252 1077.13 400.512 1078.98 400.504Z" fill="#C7D0E6"/>
<path d="M1152.51 430.3H1261.38C1262.48 430.3 1263.54 430.739 1264.32 431.52C1265.1 432.301 1265.54 433.361 1265.54 434.466C1265.54 435.57 1265.1 436.63 1264.32 437.411C1263.54 438.192 1262.48 438.631 1261.38 438.631H1152.51C1151.41 438.631 1150.35 438.192 1149.57 437.411C1148.79 436.63 1148.35 435.57 1148.35 434.466C1148.35 433.361 1148.79 432.301 1149.57 431.52C1150.35 430.739 1151.41 430.3 1152.51 430.3Z" fill="#004CFF"/>
<path d="M1152.51 490.75H1261.38C1262.48 490.75 1263.54 491.189 1264.32 491.971C1265.1 492.752 1265.54 493.811 1265.54 494.916C1265.54 496.021 1265.1 497.081 1264.32 497.862C1263.54 498.643 1262.48 499.082 1261.38 499.082H1152.51C1151.41 499.082 1150.35 498.643 1149.57 497.862C1148.79 497.081 1148.35 496.021 1148.35 494.916C1148.35 493.811 1148.79 492.752 1149.57 491.971C1150.35 491.189 1151.41 490.75 1152.51 490.75Z" fill="#004CFF"/>
<path d="M1208.44 450.46H1261.29C1262.39 450.46 1263.45 450.899 1264.23 451.681C1265.01 452.462 1265.45 453.521 1265.45 454.626C1265.45 455.731 1265.01 456.791 1264.23 457.572C1263.45 458.353 1262.39 458.792 1261.29 458.792H1208.44C1207.34 458.792 1206.28 458.353 1205.5 457.572C1204.72 456.791 1204.28 455.731 1204.28 454.626C1204.28 453.521 1204.72 452.462 1205.5 451.681C1206.28 450.899 1207.34 450.46 1208.44 450.46Z" fill="#004CFF"/>
<path d="M1002.24 470.621H1055.09C1056.19 470.621 1057.25 471.06 1058.03 471.841C1058.81 472.623 1059.25 473.682 1059.25 474.787C1059.25 475.892 1058.81 476.951 1058.03 477.733C1057.25 478.514 1056.19 478.953 1055.09 478.953H1002.24C1001.14 478.953 1000.08 478.514 999.298 477.733C998.518 476.951 998.079 475.892 998.079 474.787C998.079 473.682 998.518 472.623 999.298 471.841C1000.08 471.06 1001.14 470.621 1002.24 470.621Z" fill="#004CFF"/>
<path d="M1084.86 490.75H1137.67C1138.78 490.75 1139.84 491.189 1140.62 491.971C1141.4 492.752 1141.84 493.811 1141.84 494.916C1141.84 495.464 1141.74 496.008 1141.53 496.515C1141.32 497.023 1141.01 497.484 1140.63 497.871C1140.24 498.259 1139.78 498.566 1139.27 498.773C1138.77 498.981 1138.22 499.086 1137.67 499.082H1084.86C1084.31 499.086 1083.77 498.981 1083.26 498.773C1082.76 498.566 1082.3 498.259 1081.91 497.871C1081.52 497.484 1081.21 497.023 1081.01 496.515C1080.8 496.008 1080.69 495.464 1080.7 494.916C1080.7 494.369 1080.81 493.827 1081.02 493.322C1081.22 492.817 1081.53 492.357 1081.92 491.971C1082.3 491.584 1082.76 491.277 1083.27 491.068C1083.77 490.858 1084.31 490.75 1084.86 490.75Z" fill="#FFA64D"/>
<path d="M1097.76 511.07H1150.61C1151.71 511.07 1152.77 511.509 1153.55 512.29C1154.33 513.071 1154.77 514.131 1154.77 515.236C1154.77 516.341 1154.33 517.4 1153.55 518.181C1152.77 518.963 1151.71 519.401 1150.61 519.401H1097.76C1096.66 519.401 1095.6 518.963 1094.82 518.181C1094.04 517.4 1093.6 516.341 1093.6 515.236C1093.6 514.131 1094.04 513.071 1094.82 512.29C1095.6 511.509 1096.66 511.07 1097.76 511.07Z" fill="#004CFF"/>
<path d="M943.486 430.3H1133.32C1134.42 430.3 1135.48 430.739 1136.26 431.52C1137.04 432.301 1137.48 433.361 1137.48 434.466C1137.48 435.57 1137.04 436.63 1136.26 437.411C1135.48 438.192 1134.42 438.631 1133.32 438.631H943.486C942.382 438.631 941.323 438.192 940.543 437.411C939.762 436.63 939.323 435.57 939.323 434.466C939.323 433.361 939.762 432.301 940.543 431.52C941.323 430.739 942.382 430.3 943.486 430.3Z" fill="#004CFF"/>
<path d="M1071.55 470.621H1261.38C1262.48 470.621 1263.54 471.06 1264.32 471.841C1265.11 472.623 1265.54 473.682 1265.54 474.787C1265.54 475.892 1265.11 476.951 1264.32 477.733C1263.54 478.514 1262.48 478.953 1261.38 478.953H1071.55C1070.44 478.953 1069.38 478.514 1068.6 477.733C1067.82 476.951 1067.38 475.892 1067.38 474.787C1067.38 473.682 1067.82 472.623 1068.6 471.841C1069.38 471.06 1070.44 470.621 1071.55 470.621Z" fill="#85E8FF"/>
<path d="M1002.24 450.46H1192.08C1193.18 450.46 1194.24 450.899 1195.02 451.681C1195.8 452.462 1196.24 453.521 1196.24 454.626C1196.24 455.731 1195.8 456.791 1195.02 457.572C1194.24 458.353 1193.18 458.792 1192.08 458.792H1002.24C1001.14 458.792 1000.08 458.353 999.298 457.572C998.518 456.791 998.079 455.731 998.079 454.626C998.079 453.521 998.518 452.462 999.298 451.681C1000.08 450.899 1001.14 450.46 1002.24 450.46Z" fill="#85E8FF"/>
<path d="M907.166 430.3H923.944C924.492 430.295 925.035 430.4 925.542 430.608C926.049 430.816 926.509 431.123 926.897 431.51C927.284 431.898 927.591 432.359 927.798 432.866C928.006 433.374 928.111 433.917 928.107 434.465C928.107 435.57 927.668 436.63 926.887 437.411C926.107 438.192 925.048 438.631 923.944 438.631H907.166C906.062 438.631 905.003 438.192 904.222 437.411C903.442 436.63 903.003 435.57 903.003 434.465C903.003 433.361 903.442 432.301 904.222 431.52C905.003 430.739 906.062 430.3 907.166 430.3Z" fill="#004CFF"/>
<path d="M968.59 470.621H985.368C986.472 470.621 987.531 471.06 988.311 471.841C989.092 472.623 989.53 473.682 989.53 474.787C989.53 475.892 989.092 476.951 988.311 477.733C987.531 478.514 986.472 478.953 985.368 478.953H968.59C967.485 478.953 966.427 478.514 965.646 477.733C964.865 476.951 964.427 475.892 964.427 474.787C964.427 473.682 964.865 472.623 965.646 471.841C966.427 471.06 967.485 470.621 968.59 470.621Z" fill="#004CFF"/>
<path d="M1071.55 527.129H1261.38C1262.48 527.129 1263.54 527.568 1264.32 528.349C1265.11 529.13 1265.54 530.19 1265.54 531.295C1265.54 532.399 1265.11 533.459 1264.32 534.24C1263.54 535.021 1262.48 535.46 1261.38 535.46H1071.55C1070.44 535.46 1069.38 535.021 1068.6 534.24C1067.82 533.459 1067.38 532.399 1067.38 531.295C1067.38 530.19 1067.82 529.13 1068.6 528.349C1069.38 527.568 1070.44 527.129 1071.55 527.129Z" fill="#71ABFF"/>
<path d="M1038.5 527.129H1055.28C1056.38 527.129 1057.44 527.568 1058.22 528.349C1059 529.13 1059.44 530.19 1059.44 531.295C1059.44 532.399 1059 533.459 1058.22 534.24C1057.44 535.021 1056.38 535.46 1055.28 535.46H1038.5C1037.39 535.46 1036.34 535.021 1035.56 534.24C1034.77 533.459 1034.34 532.399 1034.34 531.295C1034.34 530.19 1034.77 529.13 1035.56 528.349C1036.34 527.568 1037.39 527.129 1038.5 527.129Z" fill="#71ABFF"/>
<path d="M1051.05 490.75H1067.83C1068.93 490.75 1069.99 491.189 1070.77 491.971C1071.55 492.752 1071.99 493.811 1071.99 494.916C1071.99 496.021 1071.55 497.081 1070.77 497.862C1069.99 498.643 1068.93 499.082 1067.83 499.082H1051.05C1049.95 499.082 1048.89 498.643 1048.11 497.862C1047.33 497.081 1046.89 496.021 1046.89 494.916C1046.89 493.811 1047.33 492.752 1048.11 491.971C1048.89 491.189 1049.95 490.75 1051.05 490.75Z" fill="#FFA64D"/>
<path d="M1208.44 511.07H1261.29C1262.39 511.07 1263.45 511.509 1264.23 512.29C1265.01 513.071 1265.45 514.131 1265.45 515.236C1265.45 516.341 1265.01 517.4 1264.23 518.181C1263.45 518.963 1262.39 519.401 1261.29 519.401H1208.44C1207.34 519.401 1206.28 518.963 1205.5 518.181C1204.72 517.4 1204.28 516.341 1204.28 515.236C1204.28 514.131 1204.72 513.071 1205.5 512.29C1206.28 511.509 1207.34 511.07 1208.44 511.07Z" fill="#004CFF"/>
<path d="M1174.76 511.07H1191.54C1192.64 511.07 1193.7 511.509 1194.48 512.29C1195.26 513.071 1195.7 514.131 1195.7 515.236C1195.7 516.341 1195.26 517.4 1194.48 518.181C1193.7 518.963 1192.64 519.401 1191.54 519.401H1174.76C1174.21 519.406 1173.67 519.301 1173.16 519.093C1172.65 518.885 1172.19 518.578 1171.8 518.191C1171.42 517.803 1171.11 517.342 1170.9 516.835C1170.7 516.328 1170.59 515.784 1170.59 515.236C1170.59 514.131 1171.03 513.071 1171.81 512.29C1172.59 511.509 1173.65 511.07 1174.76 511.07Z" fill="#004CFF"/>
<path d="M958.962 400.504H1040.41C1042.26 400.504 1044.04 401.24 1045.36 402.551C1046.68 403.862 1047.42 405.641 1047.43 407.5C1047.43 409.364 1046.69 411.151 1045.37 412.469C1044.05 413.787 1042.27 414.527 1040.41 414.527H958.962C957.107 414.511 955.334 413.764 954.026 412.449C952.717 411.133 951.979 409.356 951.971 407.5C951.979 405.647 952.718 403.872 954.028 402.562C955.337 401.252 957.11 400.512 958.962 400.504Z" fill="#C7D0E6"/>
</g>
<defs>
<linearGradient id="paint0_linear_3_11482" x1="640.5" y1="0" x2="640.5" y2="557" gradientUnits="userSpaceOnUse">
<stop stop-color="#015668"/>
<stop offset="1" stop-color="#070D5C"/>
</linearGradient>
</defs>
</svg>
