<svg width="141" height="23" fill="none" xmlns="http://www.w3.org/2000/svg"><path d="M35.802 19.417c-4.63 0-7.316-3.331-7.316-8.327 0-5.018 2.86-8.21 7.447-8.21 3.516 0 6.027 2.024 6.66 5.59h-2.668c-.48-2.157-2.03-3.302-4.083-3.302-2.511 0-4.5 2.07-4.5 5.922 0 3.875 1.944 6.031 4.478 6.031 2.14 0 3.669-1.122 4.15-3.301h2.667c-.655 3.572-3.188 5.597-6.835 5.597zM50.37 7.024c2.84 0 3.993 1.848 3.993 4.665v7.442h-2.598v-6.8c0-1.609-.237-3.172-2.225-3.172s-2.731 1.54-2.731 3.675v6.297h-2.597V3.17h2.597V8.94c.678-1.234 1.927-1.915 3.561-1.915zM67.096 7.287v11.844h-2.598v-1.563c-.699 1.166-1.927 1.849-3.494 1.849-2.949 0-5.11-2.4-5.11-6.208 0-3.808 2.161-6.185 5.11-6.185 1.572 0 2.795.681 3.494 1.848V7.287h2.598zm-8.494 5.922c0 2.51 1.07 4.072 2.97 4.072 1.702 0 3.028-1.342 3.028-4.072s-1.326-4.05-3.029-4.05c-1.9 0-2.97 1.54-2.97 4.05zM80.154 7.047c2.84 0 3.993 1.849 3.993 4.666v7.439h-2.595v-6.8c0-1.608-.24-3.17-2.228-3.17-1.988 0-2.73 1.54-2.73 3.675v6.295h-2.598V7.31h2.598v1.651c.678-1.232 1.922-1.915 3.56-1.915zM90.524 9.05c-1.136 0-2.183.506-2.183 1.299 0 .792.567 1.21 1.572 1.408l1.66.33c2.38.463 4.192 1.21 4.192 3.523 0 2.466-2.314 3.83-4.98 3.83-2.88 0-4.803-1.651-5.086-3.897h2.533c.24 1.212 1.114 1.917 2.642 1.917 1.353 0 2.358-.573 2.358-1.542 0-.969-.873-1.409-2.03-1.63l-1.77-.35c-1.986-.397-3.538-1.3-3.538-3.457 0-2.092 2.228-3.434 4.783-3.434 2.293 0 4.389 1.123 4.87 3.5H93.1c-.283-1.078-1.266-1.497-2.577-1.497zM100.843 4.186V7.31h2.358v1.893h-2.358v6.45c0 1.21.283 1.496 1.397 1.496h.939v2.002h-1.928c-2.51 0-3.013-.683-3.013-3.105V9.204h-1.742V7.31h1.747V4.186h2.6zM115.711 7.31v11.842h-2.599v-1.56c-.698 1.166-1.927 1.848-3.494 1.848-2.948 0-5.111-2.4-5.111-6.207 0-3.808 2.163-6.186 5.111-6.186 1.572 0 2.796.683 3.494 1.849V7.31h2.599zm-8.494 5.923c0 2.509 1.07 4.071 2.969 4.071 1.703 0 3.029-1.342 3.029-4.071 0-2.73-1.331-4.05-3.029-4.05-1.899 0-2.969 1.54-2.969 4.05zM125.909 11.362c-.214-1.256-1.315-2.136-2.73-2.136-1.615 0-3.079 1.212-3.079 4.007 0 2.817 1.484 4.024 3.014 4.024 1.265 0 2.554-.573 2.881-2.158h2.534c-.524 2.776-2.948 4.337-5.459 4.337-3.408 0-5.656-2.663-5.656-6.185 0-3.523 2.27-6.208 5.765-6.208 2.555 0 4.826 1.665 5.263 4.315l-2.533.004zM132.662 12.066l4.344-4.755h3.123l-4.498 4.866 5 6.975h-3.028l-3.69-5.135-1.239 1.343v3.792h-2.612V3.192h2.6v8.873zM71.893 19.13h-2.6V7.288h2.6v11.844zM70.593 6.45c.976 0 1.768-.799 1.768-1.783 0-.984-.792-1.782-1.768-1.782s-1.768.798-1.768 1.782.792 1.782 1.768 1.782zM15.819 15.946H5.049a2.831 2.831 0 01-2.02-.841l-2.203-2.22A2.883 2.883 0 010 10.856V5.09a2.894 2.894 0 01.834-2.037L3.037.833A2.84 2.84 0 015.05 0h10.769v3.192H6.012c-.754 0-1.478.303-2.011.84a2.883 2.883 0 00-.835 2.028v3.825c0 .761.3 1.491.834 2.03a2.837 2.837 0 002.012.842h9.807v3.189z" fill="#007BFF"/><path d="M6.333 6.384h10.77c.752 0 1.475.298 2.009.833l2.203 2.22c.534.539.834 1.269.834 2.03v5.767c0 .761-.3 1.491-.835 2.03l-2.202 2.22a2.837 2.837 0 01-2.014.841H6.333v-3.191h9.806c.756 0 1.48-.303 2.015-.841a2.883 2.883 0 00.834-2.03v-3.824c0-.762-.3-1.492-.834-2.03a2.837 2.837 0 00-2.015-.842H6.333V6.384z" fill="#007BFF"/></svg>